<svg width="285" height="145" viewBox="0 0 285 145" fill="none" xmlns="http://www.w3.org/2000/svg">
<path d="M52.3572 104.865L48.4998 107.093C43.24 110.129 36.7596 110.129 31.4998 107.093L13.8592 96.9079C8.59945 93.8712 5.35929 88.2587 5.3592 82.1853V75.7732L52.3572 104.865ZM66.1414 47.0925C71.4011 50.1293 74.6414 55.7418 74.6414 61.8152V82.1853C74.6413 88.2587 71.4011 93.8712 66.1414 96.9079L61.5633 99.5495L62.3153 44.8835L66.1414 47.0925ZM31.4998 36.9079C36.7596 33.8712 43.24 33.8712 48.4998 36.9079L54.2479 40.2263L5.3592 65.4314V61.8152C5.3592 55.7417 8.59938 50.1293 13.8592 47.0925L31.4998 36.9079Z" fill="#31A8FC"/>
<path d="M31.5 36.9075C36.7598 33.8707 43.2402 33.8707 48.5 36.9075L66.141 47.0925C71.4008 50.1293 74.641 55.7414 74.641 61.815V82.185C74.641 88.2586 71.4008 93.8707 66.141 96.9075L48.5 107.093C43.2402 110.129 36.7598 110.129 31.5 107.093L13.859 96.9075C8.59916 93.8707 5.35898 88.2586 5.35898 82.185V61.815C5.35898 55.7414 8.59916 50.1293 13.859 47.0925L31.5 36.9075Z" stroke="#31A8FC" stroke-width="2"/>
<mask id="path-3-outside-1_145_16" maskUnits="userSpaceOnUse" x="91" y="56" width="176" height="53" fill="black">
<rect fill="white" x="91" y="56" width="176" height="53"/>
<path d="M109.267 96.04C105.93 96.04 103.027 95.2383 100.557 93.635C98.1301 91.9883 96.2451 89.7133 94.9018 86.81C93.5585 83.9067 92.8868 80.5917 92.8868 76.865C92.8868 73.095 93.5585 69.7583 94.9018 66.855C96.2451 63.9517 98.1301 61.6767 100.557 60.03C103.027 58.3833 105.93 57.56 109.267 57.56C112.257 57.56 114.748 58.21 116.742 59.51C118.735 60.81 120.295 62.63 121.422 64.97C122.548 67.31 123.285 70.0617 123.632 73.225L123.502 80.635C123.242 83.5383 122.592 86.16 121.552 88.5C120.512 90.7967 118.995 92.6383 117.002 94.025C115.008 95.3683 112.43 96.04 109.267 96.04ZM110.177 89.67C112.603 89.67 114.597 89.1283 116.157 88.045C117.76 86.9183 118.952 85.38 119.732 83.43C120.555 81.48 120.967 79.2917 120.967 76.865C120.967 74.395 120.555 72.185 119.732 70.235C118.952 68.285 117.76 66.7467 116.157 65.62C114.597 64.4933 112.603 63.93 110.177 63.93C108.097 63.93 106.298 64.4717 104.782 65.555C103.265 66.595 102.095 68.09 101.272 70.04C100.448 71.99 100.037 74.265 100.037 76.865C100.037 79.4217 100.448 81.675 101.272 83.625C102.095 85.5317 103.265 87.0267 104.782 88.11C106.298 89.15 108.097 89.67 110.177 89.67ZM120.967 108V58.6H127.922V108H120.967ZM164.202 95H157.247V58.6H164.202V95ZM157.247 76.735L158.287 83.885C158.287 85.0117 158.092 86.2683 157.702 87.655C157.312 89.0417 156.619 90.385 155.622 91.685C154.669 92.9417 153.347 93.9817 151.657 94.805C149.967 95.6283 147.822 96.04 145.222 96.04C142.882 96.04 140.781 95.5633 138.917 94.61C137.097 93.6567 135.646 92.075 134.562 89.865C133.522 87.655 133.002 84.7083 133.002 81.025V58.6H139.957V80.18C139.957 82.1733 140.152 83.9067 140.542 85.38C140.932 86.81 141.626 87.9367 142.622 88.76C143.662 89.54 145.114 89.93 146.977 89.93C148.754 89.93 150.422 89.4317 151.982 88.435C153.542 87.4383 154.799 85.965 155.752 84.015C156.749 82.0217 157.247 79.595 157.247 76.735ZM192.808 74.2H199.763V95H192.808V74.2ZM184.683 57.56C189.666 57.56 193.414 59.055 195.928 62.045C198.484 65.035 199.763 69.0867 199.763 74.2H192.808C192.808 72.0767 192.548 70.2567 192.028 68.74C191.508 67.18 190.641 65.9667 189.428 65.1C188.258 64.2333 186.676 63.8 184.683 63.8C181.909 63.8 179.786 64.5367 178.313 66.01C176.883 67.4833 176.168 69.2817 176.168 71.405H168.823C168.823 69.0217 169.429 66.79 170.643 64.71C171.856 62.5867 173.654 60.875 176.038 59.575C178.421 58.2317 181.303 57.56 184.683 57.56ZM193.393 72.445L194.758 77.515C188.691 76.995 184.206 77.4283 181.303 78.815C178.443 80.1583 177.013 81.9783 177.013 84.275C177.013 86.1383 177.598 87.5467 178.768 88.5C179.981 89.41 181.649 89.865 183.773 89.865C185.506 89.865 187.044 89.5183 188.388 88.825C189.774 88.0883 190.858 87.0267 191.638 85.64C192.418 84.2533 192.808 82.585 192.808 80.635L194.563 83.755C194.303 86.1817 193.696 88.3267 192.743 90.19C191.789 92.01 190.446 93.44 188.713 94.48C186.979 95.52 184.834 96.04 182.278 96.04C179.894 96.04 177.749 95.6067 175.843 94.74C173.936 93.83 172.419 92.53 171.293 90.84C170.209 89.15 169.668 87.0917 169.668 84.665C169.668 82.325 170.144 80.3967 171.098 78.88C172.051 77.32 173.329 76.085 174.933 75.175C176.536 74.265 178.356 73.615 180.393 73.225C182.473 72.7917 184.618 72.5317 186.828 72.445C189.038 72.3583 191.226 72.3583 193.393 72.445ZM200.885 58.6H208.425L219.215 95H212.585L200.885 58.6ZM234.035 58.6L222.335 95H215.64L226.495 58.6H234.035ZM258.953 74.2H265.908V95H258.953V74.2ZM250.828 57.56C255.811 57.56 259.559 59.055 262.073 62.045C264.629 65.035 265.908 69.0867 265.908 74.2H258.953C258.953 72.0767 258.693 70.2567 258.173 68.74C257.653 67.18 256.786 65.9667 255.573 65.1C254.403 64.2333 252.821 63.8 250.828 63.8C248.054 63.8 245.931 64.5367 244.458 66.01C243.028 67.4833 242.313 69.2817 242.313 71.405H234.968C234.968 69.0217 235.574 66.79 236.788 64.71C238.001 62.5867 239.799 60.875 242.183 59.575C244.566 58.2317 247.448 57.56 250.828 57.56ZM259.538 72.445L260.903 77.515C254.836 76.995 250.351 77.4283 247.448 78.815C244.588 80.1583 243.158 81.9783 243.158 84.275C243.158 86.1383 243.743 87.5467 244.913 88.5C246.126 89.41 247.794 89.865 249.918 89.865C251.651 89.865 253.189 89.5183 254.533 88.825C255.919 88.0883 257.003 87.0267 257.783 85.64C258.563 84.2533 258.953 82.585 258.953 80.635L260.708 83.755C260.448 86.1817 259.841 88.3267 258.888 90.19C257.934 92.01 256.591 93.44 254.858 94.48C253.124 95.52 250.979 96.04 248.423 96.04C246.039 96.04 243.894 95.6067 241.988 94.74C240.081 93.83 238.564 92.53 237.438 90.84C236.354 89.15 235.813 87.0917 235.813 84.665C235.813 82.325 236.289 80.3967 237.243 78.88C238.196 77.32 239.474 76.085 241.078 75.175C242.681 74.265 244.501 73.615 246.538 73.225C248.618 72.7917 250.763 72.5317 252.973 72.445C255.183 72.3583 257.371 72.3583 259.538 72.445Z"/>
</mask>
<path d="M109.267 96.04C105.93 96.04 103.027 95.2383 100.557 93.635C98.1301 91.9883 96.2451 89.7133 94.9018 86.81C93.5585 83.9067 92.8868 80.5917 92.8868 76.865C92.8868 73.095 93.5585 69.7583 94.9018 66.855C96.2451 63.9517 98.1301 61.6767 100.557 60.03C103.027 58.3833 105.93 57.56 109.267 57.56C112.257 57.56 114.748 58.21 116.742 59.51C118.735 60.81 120.295 62.63 121.422 64.97C122.548 67.31 123.285 70.0617 123.632 73.225L123.502 80.635C123.242 83.5383 122.592 86.16 121.552 88.5C120.512 90.7967 118.995 92.6383 117.002 94.025C115.008 95.3683 112.43 96.04 109.267 96.04ZM110.177 89.67C112.603 89.67 114.597 89.1283 116.157 88.045C117.76 86.9183 118.952 85.38 119.732 83.43C120.555 81.48 120.967 79.2917 120.967 76.865C120.967 74.395 120.555 72.185 119.732 70.235C118.952 68.285 117.76 66.7467 116.157 65.62C114.597 64.4933 112.603 63.93 110.177 63.93C108.097 63.93 106.298 64.4717 104.782 65.555C103.265 66.595 102.095 68.09 101.272 70.04C100.448 71.99 100.037 74.265 100.037 76.865C100.037 79.4217 100.448 81.675 101.272 83.625C102.095 85.5317 103.265 87.0267 104.782 88.11C106.298 89.15 108.097 89.67 110.177 89.67ZM120.967 108V58.6H127.922V108H120.967ZM164.202 95H157.247V58.6H164.202V95ZM157.247 76.735L158.287 83.885C158.287 85.0117 158.092 86.2683 157.702 87.655C157.312 89.0417 156.619 90.385 155.622 91.685C154.669 92.9417 153.347 93.9817 151.657 94.805C149.967 95.6283 147.822 96.04 145.222 96.04C142.882 96.04 140.781 95.5633 138.917 94.61C137.097 93.6567 135.646 92.075 134.562 89.865C133.522 87.655 133.002 84.7083 133.002 81.025V58.6H139.957V80.18C139.957 82.1733 140.152 83.9067 140.542 85.38C140.932 86.81 141.626 87.9367 142.622 88.76C143.662 89.54 145.114 89.93 146.977 89.93C148.754 89.93 150.422 89.4317 151.982 88.435C153.542 87.4383 154.799 85.965 155.752 84.015C156.749 82.0217 157.247 79.595 157.247 76.735ZM192.808 74.2H199.763V95H192.808V74.2ZM184.683 57.56C189.666 57.56 193.414 59.055 195.928 62.045C198.484 65.035 199.763 69.0867 199.763 74.2H192.808C192.808 72.0767 192.548 70.2567 192.028 68.74C191.508 67.18 190.641 65.9667 189.428 65.1C188.258 64.2333 186.676 63.8 184.683 63.8C181.909 63.8 179.786 64.5367 178.313 66.01C176.883 67.4833 176.168 69.2817 176.168 71.405H168.823C168.823 69.0217 169.429 66.79 170.643 64.71C171.856 62.5867 173.654 60.875 176.038 59.575C178.421 58.2317 181.303 57.56 184.683 57.56ZM193.393 72.445L194.758 77.515C188.691 76.995 184.206 77.4283 181.303 78.815C178.443 80.1583 177.013 81.9783 177.013 84.275C177.013 86.1383 177.598 87.5467 178.768 88.5C179.981 89.41 181.649 89.865 183.773 89.865C185.506 89.865 187.044 89.5183 188.388 88.825C189.774 88.0883 190.858 87.0267 191.638 85.64C192.418 84.2533 192.808 82.585 192.808 80.635L194.563 83.755C194.303 86.1817 193.696 88.3267 192.743 90.19C191.789 92.01 190.446 93.44 188.713 94.48C186.979 95.52 184.834 96.04 182.278 96.04C179.894 96.04 177.749 95.6067 175.843 94.74C173.936 93.83 172.419 92.53 171.293 90.84C170.209 89.15 169.668 87.0917 169.668 84.665C169.668 82.325 170.144 80.3967 171.098 78.88C172.051 77.32 173.329 76.085 174.933 75.175C176.536 74.265 178.356 73.615 180.393 73.225C182.473 72.7917 184.618 72.5317 186.828 72.445C189.038 72.3583 191.226 72.3583 193.393 72.445ZM200.885 58.6H208.425L219.215 95H212.585L200.885 58.6ZM234.035 58.6L222.335 95H215.64L226.495 58.6H234.035ZM258.953 74.2H265.908V95H258.953V74.2ZM250.828 57.56C255.811 57.56 259.559 59.055 262.073 62.045C264.629 65.035 265.908 69.0867 265.908 74.2H258.953C258.953 72.0767 258.693 70.2567 258.173 68.74C257.653 67.18 256.786 65.9667 255.573 65.1C254.403 64.2333 252.821 63.8 250.828 63.8C248.054 63.8 245.931 64.5367 244.458 66.01C243.028 67.4833 242.313 69.2817 242.313 71.405H234.968C234.968 69.0217 235.574 66.79 236.788 64.71C238.001 62.5867 239.799 60.875 242.183 59.575C244.566 58.2317 247.448 57.56 250.828 57.56ZM259.538 72.445L260.903 77.515C254.836 76.995 250.351 77.4283 247.448 78.815C244.588 80.1583 243.158 81.9783 243.158 84.275C243.158 86.1383 243.743 87.5467 244.913 88.5C246.126 89.41 247.794 89.865 249.918 89.865C251.651 89.865 253.189 89.5183 254.533 88.825C255.919 88.0883 257.003 87.0267 257.783 85.64C258.563 84.2533 258.953 82.585 258.953 80.635L260.708 83.755C260.448 86.1817 259.841 88.3267 258.888 90.19C257.934 92.01 256.591 93.44 254.858 94.48C253.124 95.52 250.979 96.04 248.423 96.04C246.039 96.04 243.894 95.6067 241.988 94.74C240.081 93.83 238.564 92.53 237.438 90.84C236.354 89.15 235.813 87.0917 235.813 84.665C235.813 82.325 236.289 80.3967 237.243 78.88C238.196 77.32 239.474 76.085 241.078 75.175C242.681 74.265 244.501 73.615 246.538 73.225C248.618 72.7917 250.763 72.5317 252.973 72.445C255.183 72.3583 257.371 72.3583 259.538 72.445Z" fill="#31A8FC"/>
<path d="M100.557 93.635L99.9953 94.4625L100.004 94.4682L100.012 94.4738L100.557 93.635ZM94.9018 86.81L95.8094 86.3901V86.3901L94.9018 86.81ZM94.9018 66.855L93.9942 66.4351V66.4351L94.9018 66.855ZM100.557 60.03L100.002 59.1979L99.9953 59.2025L100.557 60.03ZM116.742 59.51L116.196 60.3476V60.3476L116.742 59.51ZM121.422 64.97L120.521 65.4038V65.4038L121.422 64.97ZM123.632 73.225L124.632 73.2425L124.633 73.1791L124.626 73.1161L123.632 73.225ZM123.502 80.635L124.498 80.7242L124.501 80.6884L124.502 80.6525L123.502 80.635ZM121.552 88.5L122.463 88.9125L122.466 88.9061L121.552 88.5ZM117.002 94.025L117.561 94.8543L117.567 94.8501L117.573 94.8459L117.002 94.025ZM116.157 88.045L116.727 88.8664L116.732 88.8632L116.157 88.045ZM119.732 83.43L118.811 83.041L118.807 83.0498L118.803 83.0586L119.732 83.43ZM119.732 70.235L118.803 70.6064L118.807 70.6152L118.811 70.624L119.732 70.235ZM116.157 65.62L115.571 66.4307L115.582 66.4382L116.157 65.62ZM104.782 65.555L105.347 66.3797L105.355 66.3743L105.363 66.3687L104.782 65.555ZM101.272 70.04L100.351 69.651V69.651L101.272 70.04ZM101.272 83.625L100.351 84.014L100.354 84.0214L101.272 83.625ZM104.782 88.11L104.201 88.9237L104.208 88.9293L104.216 88.9347L104.782 88.11ZM120.967 108H119.967V109H120.967V108ZM120.967 58.6V57.6H119.967V58.6H120.967ZM127.922 58.6H128.922V57.6H127.922V58.6ZM127.922 108V109H128.922V108H127.922ZM109.267 96.04V95.04C106.097 95.04 103.388 94.2808 101.101 92.7962L100.557 93.635L100.012 94.4738C102.665 96.1959 105.763 97.04 109.267 97.04V96.04ZM100.557 93.635L101.118 92.8075C98.8553 91.2719 97.0836 89.1441 95.8094 86.3901L94.9018 86.81L93.9942 87.2299C95.4066 90.2825 97.4049 92.7047 99.9953 94.4625L100.557 93.635ZM94.9018 86.81L95.8094 86.3901C94.5362 83.6384 93.8868 80.4704 93.8868 76.865H92.8868H91.8868C91.8868 80.7129 92.5808 84.175 93.9942 87.2299L94.9018 86.81ZM92.8868 76.865H93.8868C93.8868 73.2144 94.5368 70.0252 95.8094 67.2749L94.9018 66.855L93.9942 66.4351C92.5801 69.4915 91.8868 72.9756 91.8868 76.865H92.8868ZM94.9018 66.855L95.8094 67.2749C97.0836 64.5209 98.8553 62.3931 101.118 60.8575L100.557 60.03L99.9953 59.2025C97.4049 60.9603 95.4066 63.3825 93.9942 66.4351L94.9018 66.855ZM100.557 60.03L101.111 60.862C103.397 59.3382 106.102 58.56 109.267 58.56V57.56V56.56C105.758 56.56 102.656 57.4285 100.002 59.1979L100.557 60.03ZM109.267 57.56V58.56C112.112 58.56 114.402 59.1778 116.196 60.3476L116.742 59.51L117.288 58.6724C115.095 57.2422 112.401 56.56 109.267 56.56V57.56ZM116.742 59.51L116.196 60.3476C118.022 61.5389 119.466 63.2127 120.521 65.4038L121.422 64.97L122.323 64.5362C121.124 62.0473 119.448 60.0811 117.288 58.6724L116.742 59.51ZM121.422 64.97L120.521 65.4038C121.589 67.6215 122.301 70.2589 122.638 73.3339L123.632 73.225L124.626 73.1161C124.27 69.8645 123.508 66.9985 122.323 64.5362L121.422 64.97ZM123.632 73.225L122.632 73.2075L122.502 80.6175L123.502 80.635L124.502 80.6525L124.632 73.2425L123.632 73.225ZM123.502 80.635L122.506 80.5458C122.254 83.3546 121.628 85.8671 120.638 88.0939L121.552 88.5L122.466 88.9061C123.556 86.4529 124.229 83.7221 124.498 80.7242L123.502 80.635ZM121.552 88.5L120.641 88.0875C119.672 90.2264 118.27 91.9245 116.431 93.2041L117.002 94.025L117.573 94.8459C119.72 93.3522 121.351 91.3669 122.463 88.9125L121.552 88.5ZM117.002 94.025L116.443 93.1957C114.66 94.3975 112.293 95.04 109.267 95.04V96.04V97.04C112.567 97.04 115.357 96.3391 117.561 94.8543L117.002 94.025ZM110.177 89.67V90.67C112.751 90.67 114.959 90.0946 116.727 88.8664L116.157 88.045L115.586 87.2236C114.235 88.1621 112.456 88.67 110.177 88.67V89.67ZM116.157 88.045L116.732 88.8632C118.505 87.6169 119.814 85.9179 120.66 83.8014L119.732 83.43L118.803 83.0586C118.09 84.8421 117.015 86.2197 115.582 87.2268L116.157 88.045ZM119.732 83.43L120.653 83.819C121.535 81.7292 121.967 79.4059 121.967 76.865H120.967H119.967C119.967 79.1775 119.575 81.2308 118.811 83.041L119.732 83.43ZM120.967 76.865H121.967C121.967 74.2834 121.536 71.9379 120.653 69.846L119.732 70.235L118.811 70.624C119.574 72.4321 119.967 74.5066 119.967 76.865H120.967ZM119.732 70.235L120.66 69.8636C119.814 67.7471 118.505 66.0481 116.732 64.8018L116.157 65.62L115.582 66.4382C117.015 67.4453 118.09 68.8229 118.803 70.6064L119.732 70.235ZM116.157 65.62L116.742 64.8093C114.972 63.5307 112.758 62.93 110.177 62.93V63.93V64.93C112.449 64.93 114.222 65.4559 115.571 66.4307L116.157 65.62ZM110.177 63.93V62.93C107.914 62.93 105.906 63.5229 104.201 64.7413L104.782 65.555L105.363 66.3687C106.691 65.4204 108.28 64.93 110.177 64.93V63.93ZM104.782 65.555L104.216 64.7303C102.519 65.8941 101.237 67.552 100.351 69.651L101.272 70.04L102.193 70.429C102.953 68.628 104.011 67.2959 105.347 66.3797L104.782 65.555ZM101.272 70.04L100.351 69.651C99.4648 71.7488 99.0368 74.161 99.0368 76.865H100.037H101.037C101.037 74.369 101.432 72.2312 102.193 70.429L101.272 70.04ZM100.037 76.865H99.0368C99.0368 79.5281 99.4656 81.9181 100.351 84.014L101.272 83.625L102.193 83.236C101.431 81.4319 101.037 79.3152 101.037 76.865H100.037ZM101.272 83.625L100.354 84.0214C101.241 86.0756 102.519 87.7228 104.201 88.9237L104.782 88.11L105.363 87.2963C104.011 86.3305 102.949 84.9877 102.19 83.2286L101.272 83.625ZM104.782 88.11L104.216 88.9347C105.921 90.1035 107.922 90.67 110.177 90.67V89.67V88.67C108.271 88.67 106.676 88.1965 105.347 87.2853L104.782 88.11ZM120.967 108H121.967V58.6H120.967H119.967V108H120.967ZM120.967 58.6V59.6H127.922V58.6V57.6H120.967V58.6ZM127.922 58.6H126.922V108H127.922H128.922V58.6H127.922ZM127.922 108V107H120.967V108V109H127.922V108ZM164.202 95V96H165.202V95H164.202ZM157.247 95H156.247V96H157.247V95ZM157.247 58.6V57.6H156.247V58.6H157.247ZM164.202 58.6H165.202V57.6H164.202V58.6ZM157.247 76.735L158.237 76.5911L156.247 76.735H157.247ZM158.287 83.885H159.287V83.8127L159.277 83.7411L158.287 83.885ZM155.622 91.685L154.829 91.0766L154.826 91.0806L155.622 91.685ZM151.657 94.805L152.095 95.704V95.704L151.657 94.805ZM138.917 94.61L138.453 95.4959L138.462 95.5003L138.917 94.61ZM134.562 89.865L133.658 90.2908L133.661 90.298L133.665 90.3052L134.562 89.865ZM133.002 58.6V57.6H132.002V58.6H133.002ZM139.957 58.6H140.957V57.6H139.957V58.6ZM140.542 85.38L139.576 85.6359L139.578 85.6431L140.542 85.38ZM142.622 88.76L141.986 89.531L142.004 89.5459L142.022 89.56L142.622 88.76ZM155.752 84.015L154.858 83.5678L154.854 83.5758L155.752 84.015ZM164.202 95V94H157.247V95V96H164.202V95ZM157.247 95H158.247V58.6H157.247H156.247V95H157.247ZM157.247 58.6V59.6H164.202V58.6V57.6H157.247V58.6ZM164.202 58.6H163.202V95H164.202H165.202V58.6H164.202ZM157.247 76.735L156.258 76.8789L157.298 84.0289L158.287 83.885L159.277 83.7411L158.237 76.5911L157.247 76.735ZM158.287 83.885H157.287C157.287 84.8988 157.112 86.0625 156.74 87.3843L157.702 87.655L158.665 87.9257C159.073 86.4741 159.287 85.1245 159.287 83.885H158.287ZM157.702 87.655L156.74 87.3843C156.389 88.633 155.759 89.8636 154.829 91.0766L155.622 91.685L156.416 92.2934C157.479 90.9064 158.236 89.4503 158.665 87.9257L157.702 87.655ZM155.622 91.685L154.826 91.0806C153.984 92.1905 152.795 93.1383 151.219 93.906L151.657 94.805L152.095 95.704C153.9 94.825 155.354 93.6928 156.419 92.2894L155.622 91.685ZM151.657 94.805L151.219 93.906C149.708 94.6425 147.725 95.04 145.222 95.04V96.04V97.04C147.919 97.04 150.227 96.6142 152.095 95.704L151.657 94.805ZM145.222 96.04V95.04C143.022 95.04 141.079 94.5928 139.373 93.7197L138.917 94.61L138.462 95.5003C140.482 96.5339 142.743 97.04 145.222 97.04V96.04ZM138.917 94.61L139.381 93.7242C137.785 92.8878 136.469 91.4827 135.46 89.4248L134.562 89.865L133.665 90.3052C134.822 92.6673 136.41 94.4255 138.453 95.4958L138.917 94.61ZM134.562 89.865L135.467 89.4392C134.514 87.4127 134.002 84.6292 134.002 81.025H133.002H132.002C132.002 84.7875 132.531 87.8973 133.658 90.2908L134.562 89.865ZM133.002 81.025H134.002V58.6H133.002H132.002V81.025H133.002ZM133.002 58.6V59.6H139.957V58.6V57.6H133.002V58.6ZM139.957 58.6H138.957V80.18H139.957H140.957V58.6H139.957ZM139.957 80.18H138.957C138.957 82.2348 139.158 84.058 139.576 85.6359L140.542 85.38L141.509 85.1241C141.147 83.7553 140.957 82.1118 140.957 80.18H139.957ZM140.542 85.38L139.578 85.6431C140.014 87.242 140.807 88.5576 141.986 89.531L142.622 88.76L143.259 87.989C142.444 87.3157 141.851 86.378 141.507 85.1169L140.542 85.38ZM142.622 88.76L142.022 89.56C143.296 90.5153 144.988 90.93 146.977 90.93V89.93V88.93C145.24 88.93 144.029 88.5647 143.222 87.96L142.622 88.76ZM146.977 89.93V90.93C148.953 90.93 150.807 90.3726 152.521 89.2777L151.982 88.435L151.444 87.5923C150.038 88.4908 148.555 88.93 146.977 88.93V89.93ZM151.982 88.435L152.521 89.2777C154.261 88.1662 155.631 86.5404 156.651 84.4542L155.752 84.015L154.854 83.5758C153.967 85.3896 152.824 86.7105 151.444 87.5923L151.982 88.435ZM155.752 84.015L156.647 84.4622C157.73 82.2964 158.247 79.7076 158.247 76.735H157.247H156.247C156.247 79.4824 155.768 81.747 154.858 83.5678L155.752 84.015ZM192.808 74.2V73.2H191.808V74.2H192.808ZM199.763 74.2H200.763V73.2H199.763V74.2ZM199.763 95V96H200.763V95H199.763ZM192.808 95H191.808V96H192.808V95ZM195.928 62.045L195.162 62.6885L195.168 62.6949L195.928 62.045ZM199.763 74.2V75.2H200.763V74.2H199.763ZM192.808 74.2H191.808V75.2H192.808V74.2ZM192.028 68.74L191.079 69.0562L191.082 69.0643L192.028 68.74ZM189.428 65.1L188.832 65.9036L188.839 65.9087L188.846 65.9137L189.428 65.1ZM178.313 66.01L177.605 65.3029L177.6 65.3082L177.595 65.3135L178.313 66.01ZM176.168 71.405V72.405H177.168V71.405H176.168ZM168.823 71.405H167.823V72.405H168.823V71.405ZM170.643 64.71L171.506 65.2139L171.511 65.2061L170.643 64.71ZM176.038 59.575L176.516 60.453L176.529 60.4462L176.038 59.575ZM193.393 72.445L194.358 72.185L194.167 71.4752L193.433 71.4458L193.393 72.445ZM194.758 77.515L194.672 78.5113L196.094 78.6332L195.723 77.255L194.758 77.515ZM181.303 78.815L181.728 79.7201L181.734 79.7174L181.303 78.815ZM178.768 88.5L178.136 89.2752L178.151 89.2879L178.168 89.3L178.768 88.5ZM188.388 88.825L188.846 89.7137L188.857 89.7081L188.388 88.825ZM191.638 85.64L192.509 86.1303V86.1303L191.638 85.64ZM192.808 80.635L193.679 80.1447L191.808 76.8175V80.635H192.808ZM194.563 83.755L195.557 83.8615L195.591 83.5435L195.434 83.2647L194.563 83.755ZM192.743 90.19L193.628 90.654L193.633 90.6455L192.743 90.19ZM175.843 94.74L175.412 95.6425L175.42 95.6465L175.429 95.6504L175.843 94.74ZM171.293 90.84L170.451 91.3797L170.456 91.3872L170.46 91.3947L171.293 90.84ZM171.098 78.88L171.944 79.4122L171.951 79.4015L171.098 78.88ZM174.933 75.175L174.439 74.3053V74.3053L174.933 75.175ZM180.393 73.225L180.581 74.2072L180.589 74.2056L180.596 74.204L180.393 73.225ZM186.828 72.445L186.867 73.4442V73.4442L186.828 72.445ZM192.808 74.2V75.2H199.763V74.2V73.2H192.808V74.2ZM199.763 74.2H198.763V95H199.763H200.763V74.2H199.763ZM199.763 95V94H192.808V95V96H199.763V95ZM192.808 95H193.808V74.2H192.808H191.808V95H192.808ZM184.683 57.56V58.56C189.458 58.56 192.889 59.9841 195.162 62.6884L195.928 62.045L196.693 61.4015C193.94 58.1259 189.873 56.56 184.683 56.56V57.56ZM195.928 62.045L195.168 62.6949C197.528 65.4552 198.763 69.2522 198.763 74.2H199.763H200.763C200.763 68.9211 199.441 64.6148 196.688 61.3951L195.928 62.045ZM199.763 74.2V73.2H192.808V74.2V75.2H199.763V74.2ZM192.808 74.2H193.808C193.808 71.9999 193.539 70.0644 192.973 68.4157L192.028 68.74L191.082 69.0643C191.556 70.449 191.808 72.1534 191.808 74.2H192.808ZM192.028 68.74L192.976 68.4238C192.397 66.6849 191.412 65.2884 190.009 64.2863L189.428 65.1L188.846 65.9137C189.87 66.6449 190.618 67.6751 191.079 69.0562L192.028 68.74ZM189.428 65.1L190.023 64.2964C188.627 63.2626 186.813 62.8 184.683 62.8V63.8V64.8C186.539 64.8 187.888 65.204 188.832 65.9036L189.428 65.1ZM184.683 63.8V62.8C181.735 62.8 179.322 63.5863 177.605 65.3029L178.313 66.01L179.02 66.7171C180.25 65.487 182.084 64.8 184.683 64.8V63.8ZM178.313 66.01L177.595 65.3135C175.977 66.9804 175.168 69.0315 175.168 71.405H176.168H177.168C177.168 69.5318 177.788 67.9862 179.03 66.7065L178.313 66.01ZM176.168 71.405V70.405H168.823V71.405V72.405H176.168V71.405ZM168.823 71.405H169.823C169.823 69.2006 170.381 67.1426 171.506 65.2139L170.643 64.71L169.779 64.2061C168.477 66.4374 167.823 68.8427 167.823 71.405H168.823ZM170.643 64.71L171.511 65.2061C172.622 63.261 174.277 61.6742 176.516 60.4529L176.038 59.575L175.559 58.6971C173.031 60.0758 171.089 61.9123 169.774 64.2139L170.643 64.71ZM176.038 59.575L176.529 60.4462C178.731 59.205 181.434 58.56 184.683 58.56V57.56V56.56C181.171 56.56 178.111 57.2583 175.547 58.7038L176.038 59.575ZM193.393 72.445L192.427 72.705L193.792 77.775L194.758 77.515L195.723 77.255L194.358 72.185L193.393 72.445ZM194.758 77.515L194.843 76.5187C188.732 75.9948 184.024 76.4071 180.872 77.9126L181.303 78.815L181.734 79.7174C184.388 78.4496 188.65 77.9952 194.672 78.5113L194.758 77.515ZM181.303 78.815L180.877 77.9099C177.821 79.3456 176.013 81.4453 176.013 84.275H177.013H178.013C178.013 82.5114 179.064 80.9711 181.728 79.7201L181.303 78.815ZM177.013 84.275H176.013C176.013 86.3616 176.679 88.088 178.136 89.2752L178.768 88.5L179.399 87.7248C178.516 87.0054 178.013 85.9151 178.013 84.275H177.013ZM178.768 88.5L178.168 89.3C179.611 90.3827 181.517 90.865 183.773 90.865V89.865V88.865C181.781 88.865 180.351 88.4373 179.368 87.7L178.768 88.5ZM183.773 89.865V90.865C185.642 90.865 187.342 90.4902 188.846 89.7136L188.388 88.825L187.929 87.9364C186.747 88.5464 185.37 88.865 183.773 88.865V89.865ZM188.388 88.825L188.857 89.7081C190.415 88.8804 191.637 87.6813 192.509 86.1303L191.638 85.64L190.766 85.1497C190.078 86.372 189.134 87.2962 187.918 87.9419L188.388 88.825ZM191.638 85.64L192.509 86.1303C193.39 84.5636 193.808 82.7183 193.808 80.635H192.808H191.808C191.808 82.4517 191.445 83.943 190.766 85.1497L191.638 85.64ZM192.808 80.635L191.936 81.1253L193.691 84.2453L194.563 83.755L195.434 83.2647L193.679 80.1447L192.808 80.635ZM194.563 83.755L193.568 83.6485C193.319 85.9733 192.741 87.9966 191.852 89.7345L192.743 90.19L193.633 90.6455C194.65 88.6567 195.286 86.39 195.557 83.8615L194.563 83.755ZM192.743 90.19L191.857 89.726C190.987 91.386 189.771 92.6787 188.198 93.6225L188.713 94.48L189.227 95.3375C191.121 94.2013 192.591 92.634 193.628 90.654L192.743 90.19ZM188.713 94.48L188.198 93.6225C186.656 94.5476 184.7 95.04 182.278 95.04V96.04V97.04C184.968 97.04 187.302 96.4924 189.227 95.3375L188.713 94.48ZM182.278 96.04V95.04C180.017 95.04 178.016 94.6296 176.256 93.8296L175.843 94.74L175.429 95.6504C177.482 96.5837 179.771 97.04 182.278 97.04V96.04ZM175.843 94.74L176.273 93.8375C174.522 93.0019 173.147 91.8191 172.125 90.2853L171.293 90.84L170.46 91.3947C171.691 93.2409 173.349 94.6581 175.412 95.6425L175.843 94.74ZM171.293 90.84L172.134 90.3003C171.174 88.8023 170.668 86.9407 170.668 84.665H169.668H168.668C168.668 87.2427 169.244 89.4977 170.451 91.3797L171.293 90.84ZM169.668 84.665H170.668C170.668 82.4567 171.117 80.7275 171.944 79.4122L171.098 78.88L170.251 78.3478C169.171 80.0658 168.668 82.1933 168.668 84.665H169.668ZM171.098 78.88L171.951 79.4015C172.815 77.9874 173.969 76.8717 175.426 76.0447L174.933 75.175L174.439 74.3053C172.689 75.2983 171.287 76.6526 170.244 78.3586L171.098 78.88ZM174.933 75.175L175.426 76.0447C176.923 75.1949 178.638 74.5791 180.581 74.2072L180.393 73.225L180.204 72.2428C178.074 72.6509 176.148 73.3351 174.439 74.3053L174.933 75.175ZM180.393 73.225L180.596 74.204C182.62 73.7824 184.71 73.5288 186.867 73.4442L186.828 72.445L186.788 71.4458C184.525 71.5345 182.325 71.8009 180.189 72.246L180.393 73.225ZM186.828 72.445L186.867 73.4442C189.051 73.3586 191.213 73.3586 193.353 73.4442L193.393 72.445L193.433 71.4458C191.239 71.3581 189.024 71.3581 186.788 71.4458L186.828 72.445ZM200.885 58.6V57.6H199.513L199.933 58.906L200.885 58.6ZM208.425 58.6L209.384 58.3158L209.172 57.6H208.425V58.6ZM219.215 95V96H220.555L220.174 94.7158L219.215 95ZM212.585 95L211.633 95.306L211.856 96H212.585V95ZM234.035 58.6L234.987 58.906L235.407 57.6H234.035V58.6ZM222.335 95V96H223.064L223.287 95.306L222.335 95ZM215.64 95L214.682 94.7142L214.299 96H215.64V95ZM226.495 58.6V57.6H225.75L225.537 58.3142L226.495 58.6ZM200.885 58.6V59.6H208.425V58.6V57.6H200.885V58.6ZM208.425 58.6L207.467 58.8842L218.257 95.2842L219.215 95L220.174 94.7158L209.384 58.3158L208.425 58.6ZM219.215 95V94H212.585V95V96H219.215V95ZM212.585 95L213.537 94.694L201.837 58.294L200.885 58.6L199.933 58.906L211.633 95.306L212.585 95ZM234.035 58.6L233.083 58.294L221.383 94.694L222.335 95L223.287 95.306L234.987 58.906L234.035 58.6ZM222.335 95V94H215.64V95V96H222.335V95ZM215.64 95L216.599 95.2858L227.454 58.8858L226.495 58.6L225.537 58.3142L214.682 94.7142L215.64 95ZM226.495 58.6V59.6H234.035V58.6V57.6H226.495V58.6ZM258.953 74.2V73.2H257.953V74.2H258.953ZM265.908 74.2H266.908V73.2H265.908V74.2ZM265.908 95V96H266.908V95H265.908ZM258.953 95H257.953V96H258.953V95ZM262.073 62.045L261.307 62.6885L261.313 62.6949L262.073 62.045ZM265.908 74.2V75.2H266.908V74.2H265.908ZM258.953 74.2H257.953V75.2H258.953V74.2ZM258.173 68.74L257.224 69.0562L257.227 69.0643L258.173 68.74ZM255.573 65.1L254.977 65.9036L254.984 65.9087L254.991 65.9137L255.573 65.1ZM244.458 66.01L243.751 65.3029L243.745 65.3082L243.74 65.3135L244.458 66.01ZM242.313 71.405V72.405H243.313V71.405H242.313ZM234.968 71.405H233.968V72.405H234.968V71.405ZM236.788 64.71L237.651 65.2139L237.656 65.2061L236.788 64.71ZM242.183 59.575L242.662 60.453L242.674 60.4462L242.183 59.575ZM259.538 72.445L260.503 72.185L260.312 71.4752L259.578 71.4458L259.538 72.445ZM260.903 77.515L260.817 78.5113L262.239 78.6332L261.868 77.255L260.903 77.515ZM247.448 78.815L247.873 79.7201L247.879 79.7174L247.448 78.815ZM244.913 88.5L244.281 89.2752L244.297 89.2879L244.313 89.3L244.913 88.5ZM254.533 88.825L254.991 89.7137L255.002 89.7081L254.533 88.825ZM257.783 85.64L258.654 86.1303V86.1303L257.783 85.64ZM258.953 80.635L259.824 80.1447L257.953 76.8175V80.635H258.953ZM260.708 83.755L261.702 83.8615L261.736 83.5435L261.579 83.2647L260.708 83.755ZM258.888 90.19L259.774 90.654L259.778 90.6455L258.888 90.19ZM241.988 94.74L241.557 95.6425L241.565 95.6465L241.574 95.6504L241.988 94.74ZM237.438 90.84L236.596 91.3797L236.601 91.3872L236.606 91.3947L237.438 90.84ZM237.243 78.88L238.089 79.4122L238.096 79.4015L237.243 78.88ZM241.078 75.175L240.584 74.3053V74.3053L241.078 75.175ZM246.538 73.225L246.726 74.2072L246.734 74.2056L246.742 74.204L246.538 73.225ZM252.973 72.445L253.012 73.4442V73.4442L252.973 72.445ZM258.953 74.2V75.2H265.908V74.2V73.2H258.953V74.2ZM265.908 74.2H264.908V95H265.908H266.908V74.2H265.908ZM265.908 95V94H258.953V95V96H265.908V95ZM258.953 95H259.953V74.2H258.953H257.953V95H258.953ZM250.828 57.56V58.56C255.604 58.56 259.034 59.9841 261.307 62.6884L262.073 62.045L262.838 61.4015C260.085 58.1259 256.018 56.56 250.828 56.56V57.56ZM262.073 62.045L261.313 62.6949C263.673 65.4552 264.908 69.2522 264.908 74.2H265.908H266.908C266.908 68.9211 265.586 64.6148 262.833 61.3951L262.073 62.045ZM265.908 74.2V73.2H258.953V74.2V75.2H265.908V74.2ZM258.953 74.2H259.953C259.953 71.9999 259.684 70.0644 259.119 68.4157L258.173 68.74L257.227 69.0643C257.701 70.449 257.953 72.1534 257.953 74.2H258.953ZM258.173 68.74L259.121 68.4238C258.542 66.6849 257.557 65.2884 256.154 64.2863L255.573 65.1L254.991 65.9137C256.015 66.6449 256.764 67.6751 257.224 69.0562L258.173 68.74ZM255.573 65.1L256.168 64.2964C254.772 63.2626 252.958 62.8 250.828 62.8V63.8V64.8C252.684 64.8 254.033 65.204 254.977 65.9036L255.573 65.1ZM250.828 63.8V62.8C247.88 62.8 245.467 63.5863 243.751 65.3029L244.458 66.01L245.165 66.7171C246.395 65.487 248.229 64.8 250.828 64.8V63.8ZM244.458 66.01L243.74 65.3135C242.122 66.9804 241.313 69.0315 241.313 71.405H242.313H243.313C243.313 69.5318 243.933 67.9862 245.175 66.7065L244.458 66.01ZM242.313 71.405V70.405H234.968V71.405V72.405H242.313V71.405ZM234.968 71.405H235.968C235.968 69.2006 236.526 67.1426 237.651 65.2139L236.788 64.71L235.924 64.2061C234.622 66.4374 233.968 68.8427 233.968 71.405H234.968ZM236.788 64.71L237.656 65.2061C238.767 63.261 240.422 61.6742 242.661 60.4529L242.183 59.575L241.704 58.6971C239.176 60.0758 237.235 61.9123 235.919 64.2139L236.788 64.71ZM242.183 59.575L242.674 60.4462C244.876 59.205 247.58 58.56 250.828 58.56V57.56V56.56C247.316 56.56 244.256 57.2583 241.692 58.7038L242.183 59.575ZM259.538 72.445L258.572 72.705L259.937 77.775L260.903 77.515L261.868 77.255L260.503 72.185L259.538 72.445ZM260.903 77.515L260.988 76.5187C254.877 75.9948 250.169 76.4071 247.017 77.9126L247.448 78.815L247.879 79.7174C250.533 78.4496 254.795 77.9952 260.817 78.5113L260.903 77.515ZM247.448 78.815L247.023 77.9099C243.966 79.3456 242.158 81.4453 242.158 84.275H243.158H244.158C244.158 82.5114 245.209 80.9711 247.873 79.7201L247.448 78.815ZM243.158 84.275H242.158C242.158 86.3616 242.824 88.088 244.281 89.2752L244.913 88.5L245.544 87.7248C244.661 87.0054 244.158 85.9151 244.158 84.275H243.158ZM244.913 88.5L244.313 89.3C245.756 90.3827 247.662 90.865 249.918 90.865V89.865V88.865C247.926 88.865 246.496 88.4373 245.513 87.7L244.913 88.5ZM249.918 89.865V90.865C251.787 90.865 253.487 90.4902 254.991 89.7136L254.533 88.825L254.074 87.9364C252.892 88.5464 251.515 88.865 249.918 88.865V89.865ZM254.533 88.825L255.002 89.7081C256.56 88.8804 257.782 87.6813 258.654 86.1303L257.783 85.64L256.911 85.1497C256.224 86.372 255.279 87.2962 254.063 87.9419L254.533 88.825ZM257.783 85.64L258.654 86.1303C259.535 84.5636 259.953 82.7183 259.953 80.635H258.953H257.953C257.953 82.4517 257.59 83.943 256.911 85.1497L257.783 85.64ZM258.953 80.635L258.081 81.1253L259.836 84.2453L260.708 83.755L261.579 83.2647L259.824 80.1447L258.953 80.635ZM260.708 83.755L259.713 83.6485C259.464 85.9733 258.887 87.9966 257.997 89.7345L258.888 90.19L259.778 90.6455C260.795 88.6567 261.431 86.39 261.702 83.8615L260.708 83.755ZM258.888 90.19L258.002 89.726C257.132 91.386 255.916 92.6787 254.343 93.6225L254.858 94.48L255.372 95.3375C257.266 94.2013 258.736 92.634 259.773 90.654L258.888 90.19ZM254.858 94.48L254.343 93.6225C252.801 94.5476 250.845 95.04 248.423 95.04V96.04V97.04C251.113 97.04 253.447 96.4924 255.372 95.3375L254.858 94.48ZM248.423 96.04V95.04C246.162 95.04 244.161 94.6296 242.401 93.8296L241.988 94.74L241.574 95.6504C243.627 96.5837 245.916 97.04 248.423 97.04V96.04ZM241.988 94.74L242.418 93.8375C240.668 93.0019 239.292 91.8191 238.27 90.2853L237.438 90.84L236.606 91.3947C237.836 93.2409 239.494 94.6581 241.557 95.6425L241.988 94.74ZM237.438 90.84L238.28 90.3003C237.319 88.8023 236.813 86.9407 236.813 84.665H235.813H234.813C234.813 87.2427 235.389 89.4977 236.596 91.3797L237.438 90.84ZM235.813 84.665H236.813C236.813 82.4567 237.263 80.7275 238.089 79.4122L237.243 78.88L236.396 78.3478C235.316 80.0658 234.813 82.1933 234.813 84.665H235.813ZM237.243 78.88L238.096 79.4015C238.96 77.9874 240.114 76.8717 241.571 76.0447L241.078 75.175L240.584 74.3053C238.835 75.2983 237.432 76.6526 236.389 78.3586L237.243 78.88ZM241.078 75.175L241.571 76.0447C243.069 75.1949 244.783 74.5791 246.726 74.2072L246.538 73.225L246.35 72.2428C244.219 72.6509 242.293 73.3351 240.584 74.3053L241.078 75.175ZM246.538 73.225L246.742 74.204C248.765 73.7824 250.855 73.5288 253.012 73.4442L252.973 72.445L252.933 71.4458C250.67 71.5345 248.47 71.8009 246.334 72.246L246.538 73.225ZM252.973 72.445L253.012 73.4442C255.196 73.3586 257.358 73.3586 259.498 73.4442L259.538 72.445L259.578 71.4458C257.384 71.3581 255.169 71.3581 252.933 71.4458L252.973 72.445Z" fill="#31A8FC" mask="url(#path-3-outside-1_145_16)"/>
</svg>
