<svg width="619" height="145" viewBox="0 0 619 145" fill="none" xmlns="http://www.w3.org/2000/svg">
<mask id="path-1-outside-1_136_52" maskUnits="userSpaceOnUse" x="118.503" y="30" width="480" height="110" fill="black">
<rect fill="white" x="118.503" y="30" width="480" height="110"/>
<path d="M147.341 31H159.821L133.901 115H120.221L147.341 31ZM165.221 31L192.941 115H179.261L152.621 31H165.221ZM133.301 84.04H178.541V95.56H133.301V84.04ZM234.282 116.92C229.002 116.92 224.562 115.84 220.962 113.68C217.442 111.44 214.682 108.48 212.682 104.8V58.24C214.842 54.4 217.682 51.4 221.202 49.24C224.802 47 229.162 45.88 234.282 45.88C240.522 45.88 245.882 47.4 250.362 50.44C254.842 53.48 258.322 57.68 260.802 63.04C263.282 68.4 264.522 74.56 264.522 81.52C264.522 88.4 263.282 94.52 260.802 99.88C258.322 105.24 254.842 109.44 250.362 112.48C245.882 115.44 240.522 116.92 234.282 116.92ZM199.842 139V47.8H212.682V139H199.842ZM232.482 105.16C236.482 105.16 239.842 104.2 242.562 102.28C245.362 100.28 247.522 97.52 249.042 94C250.562 90.4 251.322 86.24 251.322 81.52C251.322 76.72 250.562 72.52 249.042 68.92C247.522 65.32 245.362 62.56 242.562 60.64C239.842 58.64 236.482 57.64 232.482 57.64C228.082 57.64 224.402 58.68 221.442 60.76C218.562 62.84 216.362 65.68 214.842 69.28C213.402 72.88 212.682 76.96 212.682 81.52C212.682 86 213.402 90.04 214.842 93.64C216.362 97.24 218.562 100.08 221.442 102.16C224.402 104.16 228.082 105.16 232.482 105.16ZM304.381 116.92C297.421 116.92 291.381 115.44 286.261 112.48C281.141 109.44 277.141 105.24 274.261 99.88C271.461 94.52 270.061 88.4 270.061 81.52C270.061 74.56 271.461 68.4 274.261 63.04C277.141 57.68 281.141 53.48 286.261 50.44C291.381 47.4 297.421 45.88 304.381 45.88C308.941 45.88 313.221 46.76 317.221 48.52C321.221 50.28 324.661 52.88 327.541 56.32C330.421 59.76 332.541 63.96 333.901 68.92C335.261 73.8 335.621 79.4 334.981 85.72H277.381V74.92H327.781L322.381 78.64C322.621 74.8 322.061 71.32 320.701 68.2C319.341 65 317.301 62.44 314.581 60.52C311.861 58.6 308.461 57.64 304.381 57.64C299.661 57.64 295.741 58.68 292.621 60.76C289.501 62.84 287.141 65.68 285.541 69.28C284.021 72.88 283.261 76.96 283.261 81.52C283.261 86 284.021 90.04 285.541 93.64C287.141 97.24 289.501 100.08 292.621 102.16C295.741 104.16 299.661 105.16 304.381 105.16C309.101 105.16 312.821 104.08 315.541 101.92C318.341 99.68 320.261 96.96 321.301 93.76H334.981C333.941 98.4 332.021 102.44 329.221 105.88C326.501 109.32 323.021 112.04 318.781 114.04C314.621 115.96 309.821 116.92 304.381 116.92ZM343.569 47.8H356.409V115H343.569V47.8ZM356.409 79.72L354.609 69.76C354.609 67.68 354.849 65.28 355.329 62.56C355.889 59.84 356.969 57.24 358.569 54.76C360.249 52.2 362.689 50.08 365.889 48.4C369.169 46.72 373.489 45.88 378.849 45.88V58.84C374.129 58.84 370.089 59.48 366.729 60.76C363.369 62.04 360.809 64.2 359.049 67.24C357.289 70.2 356.409 74.36 356.409 79.72ZM383.197 47.8H418.597V58.84H383.197V47.8ZM393.277 31H406.117V96.76C406.117 99.24 406.717 101.08 407.917 102.28C409.117 103.4 410.877 103.96 413.197 103.96H420.517V115H413.077C406.517 115 401.557 113.4 398.197 110.2C394.917 106.92 393.277 102.44 393.277 96.76V31ZM485.248 115H472.408V47.8H485.248V115ZM472.408 81.28L474.328 94.48C474.328 96.56 473.968 98.88 473.248 101.44C472.528 104 471.248 106.48 469.408 108.88C467.648 111.2 465.208 113.12 462.088 114.64C458.968 116.16 455.008 116.92 450.208 116.92C445.888 116.92 442.008 116.04 438.568 114.28C435.208 112.52 432.528 109.6 430.528 105.52C428.608 101.44 427.648 96 427.648 89.2V47.8H440.488V87.64C440.488 91.32 440.848 94.52 441.568 97.24C442.288 99.88 443.568 101.96 445.408 103.48C447.328 104.92 450.008 105.64 453.448 105.64C456.728 105.64 459.808 104.72 462.688 102.88C465.568 101.04 467.888 98.32 469.648 94.72C471.488 91.04 472.408 86.56 472.408 81.28ZM496.063 47.8H508.903V115H496.063V47.8ZM508.903 79.72L507.103 69.76C507.103 67.68 507.343 65.28 507.823 62.56C508.383 59.84 509.463 57.24 511.063 54.76C512.743 52.2 515.183 50.08 518.383 48.4C521.663 46.72 525.983 45.88 531.343 45.88V58.84C526.623 58.84 522.583 59.48 519.223 60.76C515.863 62.04 513.303 64.2 511.543 67.24C509.783 70.2 508.903 74.36 508.903 79.72ZM566.389 116.92C559.429 116.92 553.389 115.44 548.269 112.48C543.149 109.44 539.149 105.24 536.269 99.88C533.469 94.52 532.069 88.4 532.069 81.52C532.069 74.56 533.469 68.4 536.269 63.04C539.149 57.68 543.149 53.48 548.269 50.44C553.389 47.4 559.429 45.88 566.389 45.88C570.949 45.88 575.229 46.76 579.229 48.52C583.229 50.28 586.669 52.88 589.549 56.32C592.429 59.76 594.549 63.96 595.909 68.92C597.269 73.8 597.629 79.4 596.989 85.72H539.389V74.92H589.789L584.389 78.64C584.629 74.8 584.069 71.32 582.709 68.2C581.349 65 579.309 62.44 576.589 60.52C573.869 58.6 570.469 57.64 566.389 57.64C561.669 57.64 557.749 58.68 554.629 60.76C551.509 62.84 549.149 65.68 547.549 69.28C546.029 72.88 545.269 76.96 545.269 81.52C545.269 86 546.029 90.04 547.549 93.64C549.149 97.24 551.509 100.08 554.629 102.16C557.749 104.16 561.669 105.16 566.389 105.16C571.109 105.16 574.829 104.08 577.549 101.92C580.349 99.68 582.269 96.96 583.309 93.76H596.989C595.949 98.4 594.029 102.44 591.229 105.88C588.509 109.32 585.029 112.04 580.789 114.04C576.629 115.96 571.829 116.92 566.389 116.92Z"/>
</mask>
<path d="M147.341 31H159.821L133.901 115H120.221L147.341 31ZM165.221 31L192.941 115H179.261L152.621 31H165.221ZM133.301 84.04H178.541V95.56H133.301V84.04ZM234.282 116.92C229.002 116.92 224.562 115.84 220.962 113.68C217.442 111.44 214.682 108.48 212.682 104.8V58.24C214.842 54.4 217.682 51.4 221.202 49.24C224.802 47 229.162 45.88 234.282 45.88C240.522 45.88 245.882 47.4 250.362 50.44C254.842 53.48 258.322 57.68 260.802 63.04C263.282 68.4 264.522 74.56 264.522 81.52C264.522 88.4 263.282 94.52 260.802 99.88C258.322 105.24 254.842 109.44 250.362 112.48C245.882 115.44 240.522 116.92 234.282 116.92ZM199.842 139V47.8H212.682V139H199.842ZM232.482 105.16C236.482 105.16 239.842 104.2 242.562 102.28C245.362 100.28 247.522 97.52 249.042 94C250.562 90.4 251.322 86.24 251.322 81.52C251.322 76.72 250.562 72.52 249.042 68.92C247.522 65.32 245.362 62.56 242.562 60.64C239.842 58.64 236.482 57.64 232.482 57.64C228.082 57.64 224.402 58.68 221.442 60.76C218.562 62.84 216.362 65.68 214.842 69.28C213.402 72.88 212.682 76.96 212.682 81.52C212.682 86 213.402 90.04 214.842 93.64C216.362 97.24 218.562 100.08 221.442 102.16C224.402 104.16 228.082 105.16 232.482 105.16ZM304.381 116.92C297.421 116.92 291.381 115.44 286.261 112.48C281.141 109.44 277.141 105.24 274.261 99.88C271.461 94.52 270.061 88.4 270.061 81.52C270.061 74.56 271.461 68.4 274.261 63.04C277.141 57.68 281.141 53.48 286.261 50.44C291.381 47.4 297.421 45.88 304.381 45.88C308.941 45.88 313.221 46.76 317.221 48.52C321.221 50.28 324.661 52.88 327.541 56.32C330.421 59.76 332.541 63.96 333.901 68.92C335.261 73.8 335.621 79.4 334.981 85.72H277.381V74.92H327.781L322.381 78.64C322.621 74.8 322.061 71.32 320.701 68.2C319.341 65 317.301 62.44 314.581 60.52C311.861 58.6 308.461 57.64 304.381 57.64C299.661 57.64 295.741 58.68 292.621 60.76C289.501 62.84 287.141 65.68 285.541 69.28C284.021 72.88 283.261 76.96 283.261 81.52C283.261 86 284.021 90.04 285.541 93.64C287.141 97.24 289.501 100.08 292.621 102.16C295.741 104.16 299.661 105.16 304.381 105.16C309.101 105.16 312.821 104.08 315.541 101.92C318.341 99.68 320.261 96.96 321.301 93.76H334.981C333.941 98.4 332.021 102.44 329.221 105.88C326.501 109.32 323.021 112.04 318.781 114.04C314.621 115.96 309.821 116.92 304.381 116.92ZM343.569 47.8H356.409V115H343.569V47.8ZM356.409 79.72L354.609 69.76C354.609 67.68 354.849 65.28 355.329 62.56C355.889 59.84 356.969 57.24 358.569 54.76C360.249 52.2 362.689 50.08 365.889 48.4C369.169 46.72 373.489 45.88 378.849 45.88V58.84C374.129 58.84 370.089 59.48 366.729 60.76C363.369 62.04 360.809 64.2 359.049 67.24C357.289 70.2 356.409 74.36 356.409 79.72ZM383.197 47.8H418.597V58.84H383.197V47.8ZM393.277 31H406.117V96.76C406.117 99.24 406.717 101.08 407.917 102.28C409.117 103.4 410.877 103.96 413.197 103.96H420.517V115H413.077C406.517 115 401.557 113.4 398.197 110.2C394.917 106.92 393.277 102.44 393.277 96.76V31ZM485.248 115H472.408V47.8H485.248V115ZM472.408 81.28L474.328 94.48C474.328 96.56 473.968 98.88 473.248 101.44C472.528 104 471.248 106.48 469.408 108.88C467.648 111.2 465.208 113.12 462.088 114.64C458.968 116.16 455.008 116.92 450.208 116.92C445.888 116.92 442.008 116.04 438.568 114.28C435.208 112.52 432.528 109.6 430.528 105.52C428.608 101.44 427.648 96 427.648 89.2V47.8H440.488V87.64C440.488 91.32 440.848 94.52 441.568 97.24C442.288 99.88 443.568 101.96 445.408 103.48C447.328 104.92 450.008 105.64 453.448 105.64C456.728 105.64 459.808 104.72 462.688 102.88C465.568 101.04 467.888 98.32 469.648 94.72C471.488 91.04 472.408 86.56 472.408 81.28ZM496.063 47.8H508.903V115H496.063V47.8ZM508.903 79.72L507.103 69.76C507.103 67.68 507.343 65.28 507.823 62.56C508.383 59.84 509.463 57.24 511.063 54.76C512.743 52.2 515.183 50.08 518.383 48.4C521.663 46.72 525.983 45.88 531.343 45.88V58.84C526.623 58.84 522.583 59.48 519.223 60.76C515.863 62.04 513.303 64.2 511.543 67.24C509.783 70.2 508.903 74.36 508.903 79.72ZM566.389 116.92C559.429 116.92 553.389 115.44 548.269 112.48C543.149 109.44 539.149 105.24 536.269 99.88C533.469 94.52 532.069 88.4 532.069 81.52C532.069 74.56 533.469 68.4 536.269 63.04C539.149 57.68 543.149 53.48 548.269 50.44C553.389 47.4 559.429 45.88 566.389 45.88C570.949 45.88 575.229 46.76 579.229 48.52C583.229 50.28 586.669 52.88 589.549 56.32C592.429 59.76 594.549 63.96 595.909 68.92C597.269 73.8 597.629 79.4 596.989 85.72H539.389V74.92H589.789L584.389 78.64C584.629 74.8 584.069 71.32 582.709 68.2C581.349 65 579.309 62.44 576.589 60.52C573.869 58.6 570.469 57.64 566.389 57.64C561.669 57.64 557.749 58.68 554.629 60.76C551.509 62.84 549.149 65.68 547.549 69.28C546.029 72.88 545.269 76.96 545.269 81.52C545.269 86 546.029 90.04 547.549 93.64C549.149 97.24 551.509 100.08 554.629 102.16C557.749 104.16 561.669 105.16 566.389 105.16C571.109 105.16 574.829 104.08 577.549 101.92C580.349 99.68 582.269 96.96 583.309 93.76H596.989C595.949 98.4 594.029 102.44 591.229 105.88C588.509 109.32 585.029 112.04 580.789 114.04C576.629 115.96 571.829 116.92 566.389 116.92Z" fill="white"/>
<path d="M147.341 31V30H146.613L146.389 30.6928L147.341 31ZM159.821 31L160.776 31.2948L161.176 30H159.821V31ZM133.901 115V116H134.639L134.856 115.295L133.901 115ZM120.221 115L119.269 114.693L118.847 116H120.221V115ZM165.221 31L166.17 30.6866L165.944 30H165.221V31ZM192.941 115V116H194.324L193.89 114.687L192.941 115ZM179.261 115L178.308 115.302L178.529 116H179.261V115ZM152.621 31V30H151.255L151.668 31.3023L152.621 31ZM133.301 84.04V83.04H132.301V84.04H133.301ZM178.541 84.04H179.541V83.04H178.541V84.04ZM178.541 95.56V96.56H179.541V95.56H178.541ZM133.301 95.56H132.301V96.56H133.301V95.56ZM147.341 31V32H159.821V31V30H147.341V31ZM159.821 31L158.865 30.7051L132.945 114.705L133.901 115L134.856 115.295L160.776 31.2948L159.821 31ZM133.901 115V114H120.221V115V116H133.901V115ZM120.221 115L121.172 115.307L148.292 31.3072L147.341 31L146.389 30.6928L119.269 114.693L120.221 115ZM165.221 31L164.271 31.3134L191.991 115.313L192.941 115L193.89 114.687L166.17 30.6866L165.221 31ZM192.941 115V114H179.261V115V116H192.941V115ZM179.261 115L180.214 114.698L153.574 30.6977L152.621 31L151.668 31.3023L178.308 115.302L179.261 115ZM152.621 31V32H165.221V31V30H152.621V31ZM133.301 84.04V85.04H178.541V84.04V83.04H133.301V84.04ZM178.541 84.04H177.541V95.56H178.541H179.541V84.04H178.541ZM178.541 95.56V94.56H133.301V95.56V96.56H178.541V95.56ZM133.301 95.56H134.301V84.04H133.301H132.301V95.56H133.301ZM220.962 113.68L220.425 114.524L220.436 114.531L220.447 114.537L220.962 113.68ZM212.682 104.8H211.682V105.054L211.803 105.278L212.682 104.8ZM212.682 58.24L211.81 57.7497L211.682 57.978V58.24H212.682ZM221.202 49.24L221.725 50.0923L221.73 50.0891L221.202 49.24ZM250.362 50.44L250.923 49.6125V49.6125L250.362 50.44ZM260.802 63.04L261.709 62.6201V62.6201L260.802 63.04ZM260.802 99.88L261.709 100.3V100.3L260.802 99.88ZM250.362 112.48L250.913 113.314L250.923 113.307L250.362 112.48ZM199.842 139H198.842V140H199.842V139ZM199.842 47.8V46.8H198.842V47.8H199.842ZM212.682 47.8H213.682V46.8H212.682V47.8ZM212.682 139V140H213.682V139H212.682ZM242.562 102.28L243.138 103.097L243.143 103.094L242.562 102.28ZM249.042 94L249.96 94.3964L249.963 94.389L249.042 94ZM249.042 68.92L248.12 69.309V69.309L249.042 68.92ZM242.562 60.64L241.969 61.4456L241.983 61.4554L241.996 61.4647L242.562 60.64ZM221.442 60.76L220.867 59.9417L220.856 59.9493L221.442 60.76ZM214.842 69.28L213.92 68.891L213.917 68.8998L213.913 68.9086L214.842 69.28ZM214.842 93.64L213.913 94.0114L213.917 94.0202L213.92 94.029L214.842 93.64ZM221.442 102.16L220.856 102.971L220.869 102.98L220.882 102.989L221.442 102.16ZM234.282 116.92V115.92C229.137 115.92 224.885 114.868 221.476 112.823L220.962 113.68L220.447 114.537C224.238 116.812 228.867 117.92 234.282 117.92V116.92ZM220.962 113.68L221.499 112.836C218.122 110.688 215.48 107.854 213.56 104.322L212.682 104.8L211.803 105.278C213.884 109.106 216.761 112.192 220.425 114.524L220.962 113.68ZM212.682 104.8H213.682V58.24H212.682H211.682V104.8H212.682ZM212.682 58.24L213.553 58.7303C215.636 55.0284 218.36 52.1573 221.725 50.0923L221.202 49.24L220.679 48.3877C217.004 50.6427 214.048 53.7716 211.81 57.7497L212.682 58.24ZM221.202 49.24L221.73 50.0891C225.141 47.9665 229.309 46.88 234.282 46.88V45.88V44.88C229.014 44.88 224.462 46.0335 220.673 48.3909L221.202 49.24ZM234.282 45.88V46.88C240.353 46.88 245.51 48.3563 249.8 51.2675L250.362 50.44L250.923 49.6125C246.253 46.4436 240.69 44.88 234.282 44.88V45.88ZM250.362 50.44L249.8 51.2675C254.116 54.1964 257.483 58.2492 259.894 63.4599L260.802 63.04L261.709 62.6201C259.16 57.1108 255.567 52.7636 250.923 49.6125L250.362 50.44ZM260.802 63.04L259.894 63.4599C262.303 68.6669 263.522 74.6794 263.522 81.52H264.522H265.522C265.522 74.4406 264.26 68.1331 261.709 62.6201L260.802 63.04ZM264.522 81.52H263.522C263.522 88.2787 262.304 94.2517 259.894 99.4601L260.802 99.88L261.709 100.3C264.259 94.7883 265.522 88.5213 265.522 81.52H264.522ZM260.802 99.88L259.894 99.4601C257.483 104.671 254.116 108.724 249.8 111.653L250.362 112.48L250.923 113.307C255.567 110.156 259.16 105.809 261.709 100.3L260.802 99.88ZM250.362 112.48L249.81 111.646C245.519 114.481 240.358 115.92 234.282 115.92V116.92V117.92C240.685 117.92 246.244 116.399 250.913 113.314L250.362 112.48ZM199.842 139H200.842V47.8H199.842H198.842V139H199.842ZM199.842 47.8V48.8H212.682V47.8V46.8H199.842V47.8ZM212.682 47.8H211.682V139H212.682H213.682V47.8H212.682ZM212.682 139V138H199.842V139V140H212.682V139ZM232.482 105.16V106.16C236.646 106.16 240.218 105.158 243.138 103.097L242.562 102.28L241.985 101.463C239.465 103.242 236.318 104.16 232.482 104.16V105.16ZM242.562 102.28L243.143 103.094C246.108 100.976 248.376 98.064 249.96 94.3964L249.042 94L248.124 93.6036C246.667 96.976 244.616 99.5839 241.98 101.466L242.562 102.28ZM249.042 94L249.963 94.389C251.545 90.6431 252.322 86.3465 252.322 81.52H251.322H250.322C250.322 86.1335 249.579 90.1569 248.12 93.611L249.042 94ZM251.322 81.52H252.322C252.322 76.616 251.545 72.2788 249.963 68.531L249.042 68.92L248.12 69.309C249.578 72.7612 250.322 76.824 250.322 81.52H251.322ZM249.042 68.92L249.963 68.531C248.38 64.782 246.108 61.8591 243.127 59.8153L242.562 60.64L241.996 61.4647C244.616 63.2609 246.663 65.858 248.12 69.309L249.042 68.92ZM242.562 60.64L243.154 59.8343C240.232 57.686 236.654 56.64 232.482 56.64V57.64V58.64C236.309 58.64 239.451 59.594 241.969 61.4456L242.562 60.64ZM232.482 57.64V56.64C227.921 56.64 224.029 57.7199 220.867 59.9418L221.442 60.76L222.017 61.5782C224.775 59.6401 228.242 58.64 232.482 58.64V57.64ZM221.442 60.76L220.856 59.9493C217.813 62.147 215.504 65.1398 213.92 68.891L214.842 69.28L215.763 69.669C217.219 66.2202 219.31 63.5329 222.027 61.5707L221.442 60.76ZM214.842 69.28L213.913 68.9086C212.418 72.6456 211.682 76.8548 211.682 81.52H212.682H213.682C213.682 77.0652 214.385 73.1144 215.77 69.6514L214.842 69.28ZM212.682 81.52H211.682C211.682 86.1077 212.419 90.2764 213.913 94.0114L214.842 93.64L215.77 93.2686C214.384 89.8036 213.682 85.8923 213.682 81.52H212.682ZM214.842 93.64L213.92 94.029C215.504 97.7802 217.813 100.773 220.856 102.971L221.442 102.16L222.027 101.349C219.31 99.387 217.219 96.6998 215.763 93.251L214.842 93.64ZM221.442 102.16L220.882 102.989C224.042 105.124 227.929 106.16 232.482 106.16V105.16V104.16C228.235 104.16 224.761 103.196 222.002 101.331L221.442 102.16ZM286.261 112.48L285.751 113.34L285.761 113.346L286.261 112.48ZM274.261 99.88L273.375 100.343L273.38 100.353L274.261 99.88ZM274.261 63.04L273.38 62.5667L273.375 62.577L274.261 63.04ZM286.261 50.44L285.751 49.5801V49.5801L286.261 50.44ZM317.221 48.52L317.624 47.6047V47.6047L317.221 48.52ZM327.541 56.32L328.308 55.6781V55.6781L327.541 56.32ZM333.901 68.92L332.937 69.1844L332.938 69.1885L333.901 68.92ZM334.981 85.72V86.72H335.885L335.976 85.8207L334.981 85.72ZM277.381 85.72H276.381V86.72H277.381V85.72ZM277.381 74.92V73.92H276.381V74.92H277.381ZM327.781 74.92L328.349 75.7435L330.996 73.92H327.781V74.92ZM322.381 78.64L321.383 78.5776L321.255 80.6302L322.949 79.4635L322.381 78.64ZM320.701 68.2L319.781 68.5912L319.785 68.5996L320.701 68.2ZM314.581 60.52L315.158 59.703V59.703L314.581 60.52ZM292.621 60.76L292.067 59.9279V59.9279L292.621 60.76ZM285.541 69.28L284.628 68.8739L284.624 68.8824L284.62 68.891L285.541 69.28ZM285.541 93.64L284.62 94.029L284.624 94.0376L284.628 94.0461L285.541 93.64ZM292.621 102.16L292.067 102.992L292.074 102.997L292.082 103.002L292.621 102.16ZM315.541 101.92L316.163 102.703L316.166 102.701L315.541 101.92ZM321.301 93.76V92.76H320.575L320.35 93.4509L321.301 93.76ZM334.981 93.76L335.957 93.9787L336.23 92.76H334.981V93.76ZM329.221 105.88L328.446 105.249L328.441 105.254L328.437 105.26L329.221 105.88ZM318.781 114.04L319.2 114.948L319.208 114.944L318.781 114.04ZM304.381 116.92V115.92C297.566 115.92 291.705 114.472 286.762 111.614L286.261 112.48L285.761 113.346C291.058 116.408 297.277 117.92 304.381 117.92V116.92ZM286.261 112.48L286.772 111.62C281.812 108.675 277.938 104.61 275.142 99.4067L274.261 99.88L273.38 100.353C276.345 105.87 280.471 110.205 285.751 113.34L286.261 112.48ZM274.261 99.88L275.148 99.417C272.432 94.2185 271.061 88.2612 271.061 81.52H270.061H269.061C269.061 88.5388 270.491 94.8215 273.375 100.343L274.261 99.88ZM270.061 81.52H271.061C271.061 74.6968 272.433 68.6999 275.148 63.503L274.261 63.04L273.375 62.577C270.49 68.1001 269.061 74.4232 269.061 81.52H270.061ZM274.261 63.04L275.142 63.5133C277.938 58.3097 281.812 54.2449 286.772 51.2999L286.261 50.44L285.751 49.5801C280.471 52.715 276.345 57.0503 273.38 62.5667L274.261 63.04ZM286.261 50.44L286.772 51.2999C291.713 48.3661 297.57 46.88 304.381 46.88V45.88V44.88C297.272 44.88 291.05 46.4339 285.751 49.5801L286.261 50.44ZM304.381 45.88V46.88C308.809 46.88 312.951 47.7336 316.819 49.4353L317.221 48.52L317.624 47.6047C313.492 45.7864 309.074 44.88 304.381 44.88V45.88ZM317.221 48.52L316.819 49.4353C320.674 51.1317 323.991 53.6366 326.775 56.9619L327.541 56.32L328.308 55.6781C325.332 52.1234 321.769 49.4283 317.624 47.6047L317.221 48.52ZM327.541 56.32L326.775 56.9619C329.55 60.2767 331.609 64.3428 332.937 69.1844L333.901 68.92L334.866 68.6556C333.473 63.5772 331.293 59.2433 328.308 55.6781L327.541 56.32ZM333.901 68.92L332.938 69.1885C334.257 73.9222 334.617 79.3929 333.986 85.6192L334.981 85.72L335.976 85.8207C336.626 79.4071 336.265 73.6778 334.865 68.6515L333.901 68.92ZM334.981 85.72V84.72H277.381V85.72V86.72H334.981V85.72ZM277.381 85.72H278.381V74.92H277.381H276.381V85.72H277.381ZM277.381 74.92V75.92H327.781V74.92V73.92H277.381V74.92ZM327.781 74.92L327.214 74.0965L321.814 77.8165L322.381 78.64L322.949 79.4635L328.349 75.7435L327.781 74.92ZM322.381 78.64L323.379 78.7024C323.628 74.725 323.049 71.0838 321.618 67.8004L320.701 68.2L319.785 68.5996C321.073 71.5562 321.615 74.875 321.383 78.5776L322.381 78.64ZM320.701 68.2L321.622 67.8089C320.192 64.4457 318.037 61.7351 315.158 59.703L314.581 60.52L314.005 61.337C316.566 63.1449 318.49 65.5543 319.781 68.5911L320.701 68.2ZM314.581 60.52L315.158 59.703C312.234 57.6393 308.621 56.64 304.381 56.64V57.64V58.64C308.302 58.64 311.488 59.5607 314.005 61.337L314.581 60.52ZM304.381 57.64V56.64C299.515 56.64 295.389 57.7132 292.067 59.9279L292.621 60.76L293.176 61.592C296.094 59.6468 299.808 58.64 304.381 58.64V57.64ZM292.621 60.76L292.067 59.9279C288.781 62.1185 286.3 65.1099 284.628 68.8739L285.541 69.28L286.455 69.6861C287.982 66.2501 290.222 63.5615 293.176 61.592L292.621 60.76ZM285.541 69.28L284.62 68.891C283.04 72.6329 282.261 76.8484 282.261 81.52H283.261H284.261C284.261 77.0716 285.003 73.1271 286.463 69.669L285.541 69.28ZM283.261 81.52H282.261C282.261 86.1142 283.041 90.2892 284.62 94.029L285.541 93.64L286.463 93.251C285.002 89.7908 284.261 85.8858 284.261 81.52H283.261ZM285.541 93.64L284.628 94.0461C286.3 97.8101 288.781 100.802 292.067 102.992L292.621 102.16L293.176 101.328C290.222 99.3585 287.982 96.6699 286.455 93.2339L285.541 93.64ZM292.621 102.16L292.082 103.002C295.402 105.13 299.522 106.16 304.381 106.16V105.16V104.16C299.801 104.16 296.081 103.19 293.161 101.318L292.621 102.16ZM304.381 105.16V106.16C309.247 106.16 313.212 105.047 316.163 102.703L315.541 101.92L314.919 101.137C312.43 103.113 308.956 104.16 304.381 104.16V105.16ZM315.541 101.92L316.166 102.701C319.108 100.347 321.148 97.4672 322.252 94.0691L321.301 93.76L320.35 93.4509C319.375 96.4528 317.575 99.0127 314.917 101.139L315.541 101.92ZM321.301 93.76V94.76H334.981V93.76V92.76H321.301V93.76ZM334.981 93.76L334.006 93.5413C332.997 98.0413 331.141 101.937 328.446 105.249L329.221 105.88L329.997 106.511C332.902 102.943 334.886 98.7587 335.957 93.9787L334.981 93.76ZM329.221 105.88L328.437 105.26C325.819 108.57 322.465 111.197 318.355 113.136L318.781 114.04L319.208 114.944C323.578 112.883 327.184 110.07 330.006 106.5L329.221 105.88ZM318.781 114.04L318.362 113.132C314.356 114.981 309.703 115.92 304.381 115.92V116.92V117.92C309.939 117.92 314.887 116.939 319.2 114.948L318.781 114.04ZM343.569 47.8V46.8H342.569V47.8H343.569ZM356.409 47.8H357.409V46.8H356.409V47.8ZM356.409 115V116H357.409V115H356.409ZM343.569 115H342.569V116H343.569V115ZM356.409 79.72L355.425 79.8978L357.409 79.72H356.409ZM354.609 69.76H353.609V69.8496L353.625 69.9378L354.609 69.76ZM355.329 62.56L354.349 62.3583L354.347 62.3722L354.344 62.3862L355.329 62.56ZM358.569 54.76L357.733 54.2113L357.729 54.2179L358.569 54.76ZM365.889 48.4L365.433 47.5099L365.424 47.5146L365.889 48.4ZM378.849 45.88H379.849V44.88H378.849V45.88ZM378.849 58.84V59.84H379.849V58.84H378.849ZM366.729 60.76L367.085 61.6945V61.6945L366.729 60.76ZM359.049 67.24L359.908 67.7511L359.914 67.741L359.049 67.24ZM343.569 47.8V48.8H356.409V47.8V46.8H343.569V47.8ZM356.409 47.8H355.409V115H356.409H357.409V47.8H356.409ZM356.409 115V114H343.569V115V116H356.409V115ZM343.569 115H344.569V47.8H343.569H342.569V115H343.569ZM356.409 79.72L357.393 79.5422L355.593 69.5822L354.609 69.76L353.625 69.9378L355.425 79.8978L356.409 79.72ZM354.609 69.76H355.609C355.609 67.7536 355.841 65.4138 356.314 62.7338L355.329 62.56L354.344 62.3862C353.857 65.1462 353.609 67.6064 353.609 69.76H354.609ZM355.329 62.56L356.308 62.7617C356.842 60.1702 357.872 57.6848 359.409 55.3021L358.569 54.76L357.729 54.2179C356.066 56.7952 354.936 59.5098 354.349 62.3583L355.329 62.56ZM358.569 54.76L359.405 55.3087C360.976 52.9142 363.277 50.9007 366.354 49.2854L365.889 48.4L365.424 47.5146C362.101 49.2592 359.521 51.4858 357.733 54.2113L358.569 54.76ZM365.889 48.4L366.345 49.29C369.434 47.7076 373.581 46.88 378.849 46.88V45.88V44.88C373.397 44.88 368.904 45.7324 365.433 47.51L365.889 48.4ZM378.849 45.88H377.849V58.84H378.849H379.849V45.88H378.849ZM378.849 58.84V57.84C374.043 57.84 369.876 58.491 366.373 59.8255L366.729 60.76L367.085 61.6945C370.302 60.469 374.215 59.84 378.849 59.84V58.84ZM366.729 60.76L366.373 59.8255C362.804 61.1851 360.061 63.4953 358.183 66.739L359.049 67.24L359.914 67.741C361.556 64.9047 363.934 62.8949 367.085 61.6945L366.729 60.76ZM359.049 67.24L358.189 66.7289C356.3 69.9068 355.409 74.2717 355.409 79.72H356.409H357.409C357.409 74.4483 358.278 70.4932 359.908 67.7511L359.049 67.24ZM383.197 47.8V46.8H382.197V47.8H383.197ZM418.597 47.8H419.597V46.8H418.597V47.8ZM418.597 58.84V59.84H419.597V58.84H418.597ZM383.197 58.84H382.197V59.84H383.197V58.84ZM393.277 31V30H392.277V31H393.277ZM406.117 31H407.117V30H406.117V31ZM407.917 102.28L407.21 102.987L407.222 102.999L407.235 103.011L407.917 102.28ZM420.517 103.96H421.517V102.96H420.517V103.96ZM420.517 115V116H421.517V115H420.517ZM398.197 110.2L397.49 110.907L397.499 110.916L397.507 110.924L398.197 110.2ZM383.197 47.8V48.8H418.597V47.8V46.8H383.197V47.8ZM418.597 47.8H417.597V58.84H418.597H419.597V47.8H418.597ZM418.597 58.84V57.84H383.197V58.84V59.84H418.597V58.84ZM383.197 58.84H384.197V47.8H383.197H382.197V58.84H383.197ZM393.277 31V32H406.117V31V30H393.277V31ZM406.117 31H405.117V96.76H406.117H407.117V31H406.117ZM406.117 96.76H405.117C405.117 99.383 405.751 101.528 407.21 102.987L407.917 102.28L408.624 101.573C407.683 100.632 407.117 99.0969 407.117 96.76H406.117ZM407.917 102.28L407.235 103.011C408.684 104.364 410.729 104.96 413.197 104.96V103.96V102.96C411.026 102.96 409.55 102.436 408.599 101.549L407.917 102.28ZM413.197 103.96V104.96H420.517V103.96V102.96H413.197V103.96ZM420.517 103.96H419.517V115H420.517H421.517V103.96H420.517ZM420.517 115V114H413.077V115V116H420.517V115ZM413.077 115V114C406.667 114 401.996 112.437 398.887 109.476L398.197 110.2L397.507 110.924C401.118 114.363 406.367 116 413.077 116V115ZM398.197 110.2L398.904 109.493C395.852 106.441 394.277 102.238 394.277 96.76H393.277H392.277C392.277 102.642 393.982 107.399 397.49 110.907L398.197 110.2ZM393.277 96.76H394.277V31H393.277H392.277V96.76H393.277ZM485.248 115V116H486.248V115H485.248ZM472.408 115H471.408V116H472.408V115ZM472.408 47.8V46.8H471.408V47.8H472.408ZM485.248 47.8H486.248V46.8H485.248V47.8ZM472.408 81.28L473.397 81.1361L471.408 81.28H472.408ZM474.328 94.48H475.328V94.4077L475.317 94.3361L474.328 94.48ZM469.408 108.88L468.614 108.272L468.611 108.276L469.408 108.88ZM462.088 114.64L462.526 115.539V115.539L462.088 114.64ZM438.568 114.28L438.104 115.166L438.112 115.17L438.568 114.28ZM430.528 105.52L429.623 105.946L429.626 105.953L429.63 105.96L430.528 105.52ZM427.648 47.8V46.8H426.648V47.8H427.648ZM440.488 47.8H441.488V46.8H440.488V47.8ZM441.568 97.24L440.601 97.4959L440.603 97.5031L441.568 97.24ZM445.408 103.48L444.771 104.251L444.789 104.266L444.808 104.28L445.408 103.48ZM469.648 94.72L468.753 94.2728L468.749 94.2808L469.648 94.72ZM485.248 115V114H472.408V115V116H485.248V115ZM472.408 115H473.408V47.8H472.408H471.408V115H472.408ZM472.408 47.8V48.8H485.248V47.8V46.8H472.408V47.8ZM485.248 47.8H484.248V115H485.248H486.248V47.8H485.248ZM472.408 81.28L471.418 81.4239L473.338 94.6239L474.328 94.48L475.317 94.3361L473.397 81.1361L472.408 81.28ZM474.328 94.48H473.328C473.328 96.4472 472.987 98.6742 472.285 101.169L473.248 101.44L474.21 101.711C474.949 99.0858 475.328 96.6728 475.328 94.48H474.328ZM473.248 101.44L472.285 101.169C471.604 103.591 470.387 105.959 468.614 108.272L469.408 108.88L470.201 109.488C472.108 107.001 473.452 104.409 474.21 101.711L473.248 101.44ZM469.408 108.88L468.611 108.276C466.962 110.449 464.655 112.277 461.65 113.741L462.088 114.64L462.526 115.539C465.76 113.963 468.333 111.951 470.204 109.484L469.408 108.88ZM462.088 114.64L461.65 113.741C458.708 115.174 454.911 115.92 450.208 115.92V116.92V117.92C455.105 117.92 459.227 117.146 462.526 115.539L462.088 114.64ZM450.208 116.92V115.92C446.027 115.92 442.306 115.069 439.023 113.39L438.568 114.28L438.112 115.17C441.709 117.011 445.748 117.92 450.208 117.92V116.92ZM438.568 114.28L439.032 113.394C435.895 111.751 433.351 109.008 431.426 105.08L430.528 105.52L429.63 105.96C431.704 110.192 434.52 113.289 438.104 115.166L438.568 114.28ZM430.528 105.52L431.432 105.094C429.599 101.198 428.648 95.9208 428.648 89.2H427.648H426.648C426.648 96.0791 427.616 101.682 429.623 105.946L430.528 105.52ZM427.648 89.2H428.648V47.8H427.648H426.648V89.2H427.648ZM427.648 47.8V48.8H440.488V47.8V46.8H427.648V47.8ZM440.488 47.8H439.488V87.64H440.488H441.488V47.8H440.488ZM440.488 87.64H439.488C439.488 91.3815 439.853 94.6713 440.601 97.4959L441.568 97.24L442.534 96.9841C441.842 94.3687 441.488 91.2585 441.488 87.64H440.488ZM441.568 97.24L440.603 97.5031C441.369 100.312 442.749 102.581 444.771 104.251L445.408 103.48L446.045 102.709C444.386 101.339 443.206 99.448 442.532 96.9769L441.568 97.24ZM445.408 103.48L444.808 104.28C446.961 105.895 449.882 106.64 453.448 106.64V105.64V104.64C450.133 104.64 447.694 103.945 446.008 102.68L445.408 103.48ZM453.448 105.64V106.64C456.927 106.64 460.192 105.661 463.226 103.723L462.688 102.88L462.149 102.037C459.423 103.779 456.529 104.64 453.448 104.64V105.64ZM462.688 102.88L463.226 103.723C466.286 101.768 468.719 98.8954 470.546 95.1592L469.648 94.72L468.749 94.2808C467.056 97.7446 464.849 100.312 462.149 102.037L462.688 102.88ZM469.648 94.72L470.542 95.1672C472.468 91.3147 473.408 86.6726 473.408 81.28H472.408H471.408C471.408 86.4474 470.507 90.7653 468.753 94.2728L469.648 94.72ZM496.063 47.8V46.8H495.063V47.8H496.063ZM508.903 47.8H509.903V46.8H508.903V47.8ZM508.903 115V116H509.903V115H508.903ZM496.063 115H495.063V116H496.063V115ZM508.903 79.72L507.919 79.8978L509.903 79.72H508.903ZM507.103 69.76H506.103V69.8496L506.119 69.9378L507.103 69.76ZM507.823 62.56L506.843 62.3583L506.84 62.3722L506.838 62.3862L507.823 62.56ZM511.063 54.76L510.227 54.2113L510.222 54.2179L511.063 54.76ZM518.383 48.4L517.927 47.5099L517.918 47.5146L518.383 48.4ZM531.343 45.88H532.343V44.88H531.343V45.88ZM531.343 58.84V59.84H532.343V58.84H531.343ZM519.223 60.76L519.579 61.6945V61.6945L519.223 60.76ZM511.543 67.24L512.402 67.7511L512.408 67.741L511.543 67.24ZM496.063 47.8V48.8H508.903V47.8V46.8H496.063V47.8ZM508.903 47.8H507.903V115H508.903H509.903V47.8H508.903ZM508.903 115V114H496.063V115V116H508.903V115ZM496.063 115H497.063V47.8H496.063H495.063V115H496.063ZM508.903 79.72L509.887 79.5422L508.087 69.5822L507.103 69.76L506.119 69.9378L507.919 79.8978L508.903 79.72ZM507.103 69.76H508.103C508.103 67.7536 508.334 65.4138 508.807 62.7338L507.823 62.56L506.838 62.3862C506.351 65.1462 506.103 67.6064 506.103 69.76H507.103ZM507.823 62.56L508.802 62.7617C509.336 60.1702 510.366 57.6848 511.903 55.3021L511.063 54.76L510.222 54.2179C508.56 56.7952 507.43 59.5098 506.843 62.3583L507.823 62.56ZM511.063 54.76L511.899 55.3087C513.47 52.9142 515.771 50.9007 518.847 49.2854L518.383 48.4L517.918 47.5146C514.595 49.2592 512.015 51.4858 510.227 54.2113L511.063 54.76ZM518.383 48.4L518.839 49.29C521.928 47.7076 526.074 46.88 531.343 46.88V45.88V44.88C525.891 44.88 521.397 45.7324 517.927 47.51L518.383 48.4ZM531.343 45.88H530.343V58.84H531.343H532.343V45.88H531.343ZM531.343 58.84V57.84C526.537 57.84 522.37 58.491 518.867 59.8255L519.223 60.76L519.579 61.6945C522.796 60.469 526.708 59.84 531.343 59.84V58.84ZM519.223 60.76L518.867 59.8255C515.298 61.1851 512.555 63.4953 510.677 66.739L511.543 67.24L512.408 67.741C514.05 64.9047 516.428 62.8949 519.579 61.6945L519.223 60.76ZM511.543 67.24L510.683 66.7289C508.794 69.9068 507.903 74.2717 507.903 79.72H508.903H509.903C509.903 74.4483 510.772 70.4932 512.402 67.7511L511.543 67.24ZM548.269 112.48L547.759 113.34L547.769 113.346L548.269 112.48ZM536.269 99.88L535.383 100.343L535.388 100.353L536.269 99.88ZM536.269 63.04L535.388 62.5667L535.383 62.577L536.269 63.04ZM548.269 50.44L547.759 49.5801V49.5801L548.269 50.44ZM579.229 48.52L579.632 47.6047V47.6047L579.229 48.52ZM589.549 56.32L590.316 55.6781V55.6781L589.549 56.32ZM595.909 68.92L594.945 69.1844L594.946 69.1885L595.909 68.92ZM596.989 85.72V86.72H597.893L597.984 85.8207L596.989 85.72ZM539.389 85.72H538.389V86.72H539.389V85.72ZM539.389 74.92V73.92H538.389V74.92H539.389ZM589.789 74.92L590.356 75.7435L593.003 73.92H589.789V74.92ZM584.389 78.64L583.391 78.5776L583.263 80.6302L584.956 79.4635L584.389 78.64ZM582.709 68.2L581.789 68.5912L581.792 68.5996L582.709 68.2ZM576.589 60.52L577.166 59.703V59.703L576.589 60.52ZM554.629 60.76L554.074 59.9279V59.9279L554.629 60.76ZM547.549 69.28L546.635 68.8739L546.632 68.8824L546.628 68.891L547.549 69.28ZM547.549 93.64L546.628 94.029L546.632 94.0376L546.635 94.0461L547.549 93.64ZM554.629 102.16L554.074 102.992L554.082 102.997L554.09 103.002L554.629 102.16ZM577.549 101.92L578.171 102.703L578.174 102.701L577.549 101.92ZM583.309 93.76V92.76H582.583L582.358 93.4509L583.309 93.76ZM596.989 93.76L597.965 93.9787L598.238 92.76H596.989V93.76ZM591.229 105.88L590.454 105.249L590.449 105.254L590.445 105.26L591.229 105.88ZM580.789 114.04L581.208 114.948L581.216 114.944L580.789 114.04ZM566.389 116.92V115.92C559.574 115.92 553.713 114.472 548.77 111.614L548.269 112.48L547.769 113.346C553.066 116.408 559.285 117.92 566.389 117.92V116.92ZM548.269 112.48L548.78 111.62C543.82 108.675 539.946 104.61 537.15 99.4067L536.269 99.88L535.388 100.353C538.352 105.87 542.479 110.205 547.759 113.34L548.269 112.48ZM536.269 99.88L537.156 99.417C534.44 94.2185 533.069 88.2612 533.069 81.52H532.069H531.069C531.069 88.5388 532.498 94.8215 535.383 100.343L536.269 99.88ZM532.069 81.52H533.069C533.069 74.6968 534.441 68.6999 537.156 63.503L536.269 63.04L535.383 62.577C532.498 68.1001 531.069 74.4232 531.069 81.52H532.069ZM536.269 63.04L537.15 63.5133C539.946 58.3097 543.82 54.2449 548.78 51.2999L548.269 50.44L547.759 49.5801C542.479 52.715 538.352 57.0503 535.388 62.5667L536.269 63.04ZM548.269 50.44L548.78 51.2999C553.721 48.3661 559.578 46.88 566.389 46.88V45.88V44.88C559.28 44.88 553.058 46.4339 547.759 49.5801L548.269 50.44ZM566.389 45.88V46.88C570.817 46.88 574.959 47.7336 578.826 49.4353L579.229 48.52L579.632 47.6047C575.499 45.7864 571.082 44.88 566.389 44.88V45.88ZM579.229 48.52L578.826 49.4353C582.682 51.1317 585.998 53.6366 588.782 56.9619L589.549 56.32L590.316 55.6781C587.34 52.1234 583.776 49.4283 579.632 47.6047L579.229 48.52ZM589.549 56.32L588.782 56.9619C591.558 60.2767 593.617 64.3428 594.945 69.1844L595.909 68.92L596.874 68.6556C595.481 63.5772 593.301 59.2433 590.316 55.6781L589.549 56.32ZM595.909 68.92L594.946 69.1885C596.265 73.9222 596.625 79.3929 595.994 85.6192L596.989 85.72L597.984 85.8207C598.634 79.4071 598.273 73.6778 596.872 68.6515L595.909 68.92ZM596.989 85.72V84.72H539.389V85.72V86.72H596.989V85.72ZM539.389 85.72H540.389V74.92H539.389H538.389V85.72H539.389ZM539.389 74.92V75.92H589.789V74.92V73.92H539.389V74.92ZM589.789 74.92L589.222 74.0965L583.822 77.8165L584.389 78.64L584.956 79.4635L590.356 75.7435L589.789 74.92ZM584.389 78.64L585.387 78.7024C585.636 74.725 585.057 71.0838 583.626 67.8004L582.709 68.2L581.792 68.5996C583.081 71.5562 583.623 74.875 583.391 78.5776L584.389 78.64ZM582.709 68.2L583.63 67.8089C582.2 64.4457 580.045 61.7351 577.166 59.703L576.589 60.52L576.012 61.337C578.574 63.1449 580.498 65.5543 581.789 68.5911L582.709 68.2ZM576.589 60.52L577.166 59.703C574.242 57.6393 570.628 56.64 566.389 56.64V57.64V58.64C570.31 58.64 573.496 59.5607 576.012 61.337L576.589 60.52ZM566.389 57.64V56.64C561.523 56.64 557.397 57.7132 554.074 59.9279L554.629 60.76L555.184 61.592C558.102 59.6468 561.816 58.64 566.389 58.64V57.64ZM554.629 60.76L554.074 59.9279C550.789 62.1185 548.308 65.1099 546.635 68.8739L547.549 69.28L548.463 69.6861C549.99 66.2501 552.23 63.5615 555.184 61.592L554.629 60.76ZM547.549 69.28L546.628 68.891C545.048 72.6329 544.269 76.8484 544.269 81.52H545.269H546.269C546.269 77.0716 547.01 73.1271 548.47 69.669L547.549 69.28ZM545.269 81.52H544.269C544.269 86.1142 545.049 90.2892 546.628 94.029L547.549 93.64L548.47 93.251C547.009 89.7908 546.269 85.8858 546.269 81.52H545.269ZM547.549 93.64L546.635 94.0461C548.308 97.8101 550.789 100.802 554.074 102.992L554.629 102.16L555.184 101.328C552.23 99.3585 549.99 96.6699 548.463 93.2339L547.549 93.64ZM554.629 102.16L554.09 103.002C557.409 105.13 561.53 106.16 566.389 106.16V105.16V104.16C561.809 104.16 558.089 103.19 555.169 101.318L554.629 102.16ZM566.389 105.16V106.16C571.254 106.16 575.22 105.047 578.171 102.703L577.549 101.92L576.927 101.137C574.438 103.113 570.964 104.16 566.389 104.16V105.16ZM577.549 101.92L578.174 102.701C581.116 100.347 583.156 97.4672 584.26 94.0691L583.309 93.76L582.358 93.4509C581.383 96.4528 579.582 99.0127 576.924 101.139L577.549 101.92ZM583.309 93.76V94.76H596.989V93.76V92.76H583.309V93.76ZM596.989 93.76L596.013 93.5413C595.005 98.0413 593.149 101.937 590.454 105.249L591.229 105.88L592.005 106.511C594.909 102.943 596.894 98.7587 597.965 93.9787L596.989 93.76ZM591.229 105.88L590.445 105.26C587.827 108.57 584.473 111.197 580.363 113.136L580.789 114.04L581.216 114.944C585.586 112.883 589.191 110.07 592.014 106.5L591.229 105.88ZM580.789 114.04L580.37 113.132C576.364 114.981 571.711 115.92 566.389 115.92V116.92V117.92C571.947 117.92 576.895 116.939 581.208 114.948L580.789 114.04Z" fill="white" mask="url(#path-1-outside-1_136_52)"/>
<path d="M71.991 117.189L63.4998 122.092C58.24 125.129 51.7596 125.129 46.4998 122.092L15.8689 104.407C10.6092 101.371 7.36893 95.7583 7.36893 89.6848V77.1887L71.991 117.189ZM94.1316 39.5921C99.3913 42.6287 102.631 48.2414 102.632 54.3147V89.6848C102.632 95.7583 99.3913 101.371 94.1316 104.407L84.6502 109.88L85.6844 34.7151L94.1316 39.5921ZM46.4998 21.9075C51.7595 18.8708 58.24 18.8709 63.4998 21.9075L74.5916 28.3108L7.36893 62.969V54.3147C7.36907 48.2414 10.6092 42.6287 15.8689 39.5921L46.4998 21.9075Z" fill="white"/>
<path d="M47 22.7734C51.9504 19.9153 58.0496 19.9153 63 22.7734L93.6318 40.459C98.5819 43.3172 101.632 48.5994 101.632 54.3154V89.6846C101.632 95.4006 98.5819 100.683 93.6318 103.541L63 121.227C58.2044 123.995 52.3308 124.082 47.4678 121.486L47 121.227L16.3682 103.541C11.4181 100.683 8.36816 95.4006 8.36816 89.6846V54.3154C8.36816 48.5994 11.4181 43.3172 16.3682 40.459L47 22.7734Z" stroke="white" stroke-width="2"/>
</svg>
